<!-- Generated by IcoMoon.io -->
<svg version="1.1" xmlns="http://www.w3.org/2000/svg" width="40" height="41" viewBox="0 0 768 768">
<g id="icomoon-ignore">
</g>
<path fill="#000" d="M523.5 448.5h108q9-42 9-64.5t-9-64.5h-108q4.5 31.5 4.5 64.5t-4.5 64.5zM466.5 625.5q37.5-12 78-45.75t61.5-68.25h-94.5q-15 60-45 114zM459 448.5q4.5-31.5 4.5-64.5t-4.5-64.5h-150q-4.5 31.5-4.5 64.5t4.5 64.5h150zM384 639q42-61.5 61.5-127.5h-123q19.5 66 61.5 127.5zM256.5 256.5q18-64.5 45-114-37.5 12-78.75 45.75t-60.75 68.25h94.5zM162 511.5q19.5 34.5 60.75 68.25t78.75 45.75q-30-54-45-114h-94.5zM136.5 448.5h108q-4.5-31.5-4.5-64.5t4.5-64.5h-108q-9 42-9 64.5t9 64.5zM384 129q-42 61.5-61.5 127.5h123q-19.5-66-61.5-127.5zM606 256.5q-21-34.5-61.5-68.25t-78-45.75q27 49.5 45 114h94.5zM384 64.5q132 0 225.75 93.75t93.75 225.75-93.75 225.75-225.75 93.75-225.75-93.75-93.75-225.75 93.75-225.75 225.75-93.75z"></path>
</svg>
